# xmcd CD database file
#
# Track frame offsets:
#	150
#	19315
#	40383
#	61815
#	80504
#	106889
#	127091
#	144568
#	170800
#	190680
#	209653
#	225247
#	245127
#	263663
#	284119
#	303347
#	324763
#
# Disc length: 4572 seconds
#
# Revision: 2
# Processed by: cddbd v1.5.2PL0 Copyright (c) Steve Scherf et al.
# Submitted via: CDex 1.70beta2
#
DISCID=f911da11
DTITLE=Aventura - We Broke The Rules (2 En 1)
DYEAR=2002
DGENRE=Salsa
TTITLE0=Obsesión
TTITLE1=I Believe (Yo Creo)
TTITLE2=Todavia Me Amas
TTITLE3=Cuando Volverás
TTITLE4=Amor de Madre
TTITLE5=Gone
TTITLE6=Mi Puerto Rico
TTITLE7=Enseñame a Olvidar
TTITLE8=9:15 Nueve y Quince
TTITLE9=Obsesión [English Remix]
TTITLE10=Soy Mujeriego
TTITLE11=El Coro Dominicano
TTITLE12=La Novelita
TTITLE13=No Lo Perdona Dios
TTITLE14=Un Poeta Enamorado
TTITLE15=Si Me Dejas Muero
TTITLE16=Alexandra
EXTD=YEAR: 2002
EXTT0=
EXTT1=
EXTT2=
EXTT3=
EXTT4=
EXTT5=
EXTT6=
EXTT7=
EXTT8=
EXTT9=
EXTT10=
EXTT11=
EXTT12=
EXTT13=
EXTT14=
EXTT15=
EXTT16=
PLAYORDER=
